<?xml version="1.0" encoding="utf-8"?>
<!-- Generator: Adobe Illustrator 16.0.0, SVG Export Plug-In . SVG Version: 6.00 Build 0)  -->
<!DOCTYPE svg PUBLIC "-//W3C//DTD SVG 1.1//EN" "http://www.w3.org/Graphics/SVG/1.1/DTD/svg11.dtd">
<svg version="1.1" id="Layer_1" xmlns="http://www.w3.org/2000/svg" xmlns:xlink="http://www.w3.org/1999/xlink" x="0px" y="0px"
	 width="70px" height="70px" viewBox="0 0 2000 2000" enable-background="new 0 0 2000 2000" xml:space="preserve">
<path fill-rule="evenodd" clip-rule="evenodd" fill="#3E514C" d="M1576.003,1547.412
	c-124.401,367.893-621.55,483.291-931.434,222.264c-85.403-71.938-127.103-168.197-160.826-270.045
	c-47.937-238.645,34.358-432.104,208.428-591.96c64.475-59.207,109.254-127.652,132.656-212.598
	c17.799-64.61,49.741-122.712,120.431-144.76c36.197-11.291,25.163-35.641,17.664-57.339
	c-28.113-81.411-75.566-150.099-140.176-207.146c-28.677-25.326-69.885-50.596-31.371-94.534
	c37.145-42.377,69.885-8.71,99.324,16.252c36.867,31.257,72.309,64.189,111.107,98.847
	c49.769-113.274,134.915-201.093,268.925-223.512c135.679-22.696,133.411-22.903,111.57,111.728
	c-22.161,136.654-111.078,228.059-244.504,273.38c-22.297,7.57-57.56-0.349-63.548,31.072
	c-7.763,40.773,31.129,41.614,56.199,51.017c59.962,22.489,94.783,68.167,110.473,126.547
	c27.486,102.247,84.961,182.403,161.945,253.464C1586.424,1099.512,1636.2,1308.561,1576.003,1547.412z M1488.084,1386.807
	c21.719-129.861-24.699-237.661-115.121-325.973c-103.43-101.006-193.295-209.034-230.454-352.404
	c-14.143-54.566-52.036-69.051-103.958-69.165c-54.388-0.121-95.731,14.028-109.225,72.33
	c-28.527,123.325-105.947,213.012-193.445,299.791c-75.231,74.61-141.772,159.286-149.892,273.209
	c-39.804,285.763,122.983,494.077,409.693,524.271C1261.563,1836.873,1495.825,1636.072,1488.084,1386.807z M1278.771,190.325
	c-109.033,31.357-158.994,82.944-176.814,180.129C1191.309,341.107,1247.2,285.344,1278.771,190.325z"/>
<path fill-rule="evenodd" clip-rule="evenodd" fill="none" stroke="#495B55" stroke-miterlimit="10" d="M1278.771,190.325
	c-31.571,95.019-87.463,150.783-176.814,180.129C1119.777,273.269,1169.738,221.682,1278.771,190.325z"/>
</svg>
